<svg width="43" height="35" viewBox="0 0 43 35" fill="none" xmlns="http://www.w3.org/2000/svg">
<path d="M41.5 22.5H40.5H12.5V17.5L11 16.5H8L1 23.5V27.5L8 34H11L12.5 32.5V28H40.5L41.5 27.5L42.5 26.5V23.5L41.5 22.5Z" fill="#FFD333"/>
<path d="M1 13V7.5H30.5V2.5L32 1H35L42.5 9V12L35 19H32L30.5 17.5V13H1Z" fill="#FFD333"/>
<path d="M41.5 22.5H40.5H12.5V17.5L11 16.5H8L1 23.5V27.5L8 34H11L12.5 32.5V28H40.5L41.5 27.5L42.5 26.5V23.5L41.5 22.5Z" stroke="#FFD333"/>
<path d="M1 13V7.5H30.5V2.5L32 1H35L42.5 9V12L35 19H32L30.5 17.5V13H1Z" stroke="#FFD333"/>
</svg>
